<mxfile host="app.diagrams.net" modified="2023-04-28T08:54:56.076Z" agent="Mozilla/5.0 (Windows NT 10.0; Win64; x64) AppleWebKit/537.36 (KHTML, like Gecko) Chrome/109.0.0.0 Safari/537.36 Edg/109.0.1518.70" version="21.2.3" etag="dn5p_xQPZ7vneZn2MlkW" type="github">
  <diagram name="第 1 页" id="Ucvey2UMzARnr-9iJhUU">
    <mxGraphModel>
      <root>
        <mxCell id="0" />
        <mxCell id="1" parent="0" />
      </root>
    </mxGraphModel>
  </diagram>
</mxfile>
